<svg xmlns:mydata="http://www.w3.org/2000/svg" version="1.1"
  xmlns="http://www.w3.org/2000/svg"
  xmlns:xlink="http://www.w3.org/1999/xlink" viewBox="120 250 300 310" width="200" height="200">
  <g fill="#ef3340" fill-rule="none" stroke="none" stroke-width="1" stroke-linecap="butt" stroke-linejoin="miter" stroke-miterlimit="10" stroke-dasharray="" stroke-dashoffset="0" font-family="none" font-weight="none" font-size="none" text-anchor="none" style="mix-blend-mode: normal; animation-play-state: running">
    <g data-paper-data='{"isGlobalGroup":true,"bounds":{"x":123.36805541118053,"y":115.00000000000001,"width":303.26388917763893,"height":240}}' style="animation-play-state: running">
      <g data-paper-data='{"isPrimaryText":true}' fill-rule="nonzero" style="animation-play-state: running">
        <path d="M178.25893,333.44808c-2.25529,0 -4.40146,-0.43651 -6.43849,-1.30952c-2.03704,-0.87302 -3.81944,-2.07341 -5.34722,-3.60119c-1.52778,-1.52778 -2.72817,-3.31019 -3.60119,-5.34722c-0.87302,-2.03704 -1.30952,-4.1832 -1.30952,-6.43849v-35.79365c0,-1.45503 0.43651,-2.61905 1.30952,-3.49206c0.87302,-0.87302 2.03704,-1.30952 3.49206,-1.30952c1.45503,0 2.61905,0.43651 3.49206,1.30952c0.87302,0.87302 1.30952,2.03704 1.30952,3.49206v35.79365c0,1.96429 0.69114,3.63757 2.07341,5.01984c1.38228,1.38228 3.05556,2.07341 5.01984,2.07341c1.96429,0 3.65575,-0.69114 5.0744,-2.07341c1.41865,-1.38228 2.12798,-3.05556 2.12798,-5.01984v-55c0,-1.45503 0.43651,-2.60086 1.30952,-3.4375c0.87302,-0.83664 2.03704,-1.25496 3.49206,-1.25496c1.45503,0 2.60086,0.41832 3.4375,1.25496c0.83664,0.83664 1.25496,1.98247 1.25496,3.4375v55c0,2.32804 -0.43651,4.51058 -1.30952,6.54762c-0.87302,2.03704 -2.07341,3.80126 -3.60119,5.29266c-1.52778,1.4914 -3.292,2.67361 -5.29266,3.54663c-2.00066,0.87302 -4.16501,1.30952 -6.49306,1.30952zM128.16964,257.05919h38.30357c1.45503,0 2.60086,0.41832 3.4375,1.25496c0.83664,0.83664 1.25496,1.98247 1.25496,3.4375c0,1.45503 -0.41832,2.61905 -1.25496,3.49206c-0.83664,0.87302 -1.98247,1.30952 -3.4375,1.30952h-21.60714v62.09325c0,1.45503 -0.43651,2.61905 -1.30952,3.49206c-0.87302,0.87302 -2.03704,1.30952 -3.49206,1.30952c-1.45503,0 -2.61905,-0.43651 -3.49206,-1.30952c-0.87302,-0.87302 -1.30952,-2.03704 -1.30952,-3.49206v-62.09325h-7.09325c-1.45503,0 -2.61905,-0.43651 -3.49206,-1.30952c-0.87302,-0.87302 -1.30952,-2.03704 -1.30952,-3.49206c0,-1.45503 0.43651,-2.60086 1.30952,-3.4375c0.87302,-0.83664 2.03704,-1.25496 3.49206,-1.25496z" data-paper-data='{"glyphName":"","glyphIndex":0,"firstGlyphOfWord":true,"word":1}' style="animation-play-state: running"></path>
        <path d="M205.6498,265.24371c0,-2.47354 0.7457,-4.45602 2.2371,-5.94742c1.4914,-1.4914 3.47388,-2.2371 5.94742,-2.2371h8.5119c2.32804,0 4.51058,0.43651 6.54762,1.30952c2.03704,0.87302 3.80126,2.07341 5.29266,3.60119c1.4914,1.52778 2.67361,3.292 3.54663,5.29266c0.87302,2.00066 1.30952,4.16501 1.30952,6.49306v12.44048c0,3.12831 -0.76389,5.9838 -2.29167,8.56647c-1.52778,2.58267 -3.67394,4.6379 -6.43849,6.16567l11.67659,28.15476c0.58201,1.30952 0.61839,2.36442 0.10913,3.16468c-0.50926,0.80026 -1.4914,1.2004 -2.94643,1.2004c-1.45503,0 -2.78274,-0.40013 -3.98313,-1.2004c-1.2004,-0.80026 -2.0916,-1.85516 -2.67361,-3.16468l-10.9127,-26.19048h-6.32937v25.75397c0,1.45503 -0.43651,2.61905 -1.30952,3.49206c-0.87302,0.87302 -2.03704,1.30952 -3.49206,1.30952c-1.45503,0 -2.61905,-0.43651 -3.49206,-1.30952c-0.87302,-0.87302 -1.30952,-2.03704 -1.30952,-3.49206zM215.25298,293.28935h7.09325c1.96429,0 3.65575,-0.69114 5.0744,-2.07341c1.41865,-1.38228 2.12798,-3.05556 2.12798,-5.01984v-12.44048c0,-1.96429 -0.70933,-3.65575 -2.12798,-5.0744c-1.41865,-1.41865 -3.11012,-2.12798 -5.0744,-2.12798h-7.09325z" data-paper-data='{"glyphName":"R","glyphIndex":1,"word":1}' style="animation-play-state: running"></path>
        <path d="M258.79464,320.02546l-1.6369,8.73016c-0.29101,1.45503 -0.94577,2.60086 -1.96429,3.4375c-1.01852,0.83664 -2.25529,1.25496 -3.71032,1.25496c-1.45503,0 -2.5463,-0.41832 -3.27381,-1.25496c-0.72751,-0.83664 -0.94577,-1.98247 -0.65476,-3.4375l12.5496,-67.00397c0.29101,-1.45503 0.94577,-2.60086 1.96429,-3.4375c1.01852,-0.83664 2.25529,-1.25496 3.71032,-1.25496c1.45503,0 2.6918,0.41832 3.71032,1.25496c1.01852,0.83664 1.67328,1.98247 1.96429,3.4375l12.5496,67.00397c0.29101,1.45503 0.09094,2.60086 -0.6002,3.4375c-0.69114,0.83664 -1.76422,1.25496 -3.21925,1.25496c-1.45503,0 -2.6918,-0.41832 -3.71032,-1.25496c-1.01852,-0.83664 -1.67328,-1.98247 -1.96429,-3.4375l-1.6369,-8.73016zM260.54067,310.53141h10.47619l-5.2381,-28.04563z" data-paper-data='{"glyphName":"A","glyphIndex":2,"word":1}' style="animation-play-state: running"></path>
        <path d="M296.44345,333.44808c-1.45503,0 -2.61905,-0.43651 -3.49206,-1.30952c-0.87302,-0.87302 -1.30952,-2.03704 -1.30952,-3.49206v-66.78571c0,-1.45503 0.43651,-2.61905 1.30952,-3.49206c0.87302,-0.87302 2.03704,-1.30952 3.49206,-1.30952c1.45503,0 2.61905,0.43651 3.49206,1.30952c0.87302,0.87302 1.30952,2.03704 1.30952,3.49206v30.88294l16.91468,-31.5377c0.65476,-1.23677 1.61872,-2.2371 2.89187,-3.00099c1.27315,-0.76389 2.63724,-1.14583 4.09226,-1.14583c1.45503,0 2.40079,0.38194 2.8373,1.14583c0.43651,0.76389 0.29101,1.76422 -0.43651,3.00099l-17.13294,32.08333l17.35119,35.90278c0.58201,1.23677 0.65476,2.25529 0.21825,3.05556c-0.43651,0.80026 -1.38228,1.2004 -2.8373,1.2004c-1.45503,0 -2.81911,-0.40013 -4.09226,-1.2004c-1.27315,-0.80026 -2.20073,-1.81878 -2.78274,-3.05556l-12.87698,-26.51786l-4.14683,7.85714v18.11508c0,1.45503 -0.43651,2.61905 -1.30952,3.49206c-0.87302,0.87302 -2.03704,1.30952 -3.49206,1.30952z" data-paper-data='{"glyphName":"K","glyphIndex":3,"word":1}' style="animation-play-state: running"></path>
        <path d="M337.36607,323.8449c1.45503,0 2.61905,0.43651 3.49206,1.30952c0.87302,0.87302 1.30952,2.03704 1.30952,3.49206c0,1.45503 -0.43651,2.61905 -1.30952,3.49206c-0.87302,0.87302 -2.03704,1.30952 -3.49206,1.30952c-1.45503,0 -2.61905,-0.43651 -3.49206,-1.30952c-0.87302,-0.87302 -1.30952,-2.03704 -1.30952,-3.49206c0,-1.45503 0.43651,-2.61905 1.30952,-3.49206c0.87302,-0.87302 2.03704,-1.30952 3.49206,-1.30952z" data-paper-data='{"glyphName":".","glyphIndex":4,"word":1}' style="animation-play-state: running"></path>
        <path d="M354.38988,333.44808c-1.45503,0 -2.61905,-0.43651 -3.49206,-1.30952c-0.87302,-0.87302 -1.30952,-2.03704 -1.30952,-3.49206v-66.78571c0,-1.45503 0.43651,-2.61905 1.30952,-3.49206c0.87302,-0.87302 2.03704,-1.30952 3.49206,-1.30952c1.45503,0 2.61905,0.43651 3.49206,1.30952c0.87302,0.87302 1.30952,2.03704 1.30952,3.49206v30.88294l16.91468,-31.5377c0.65476,-1.23677 1.61872,-2.2371 2.89187,-3.00099c1.27315,-0.76389 2.63724,-1.14583 4.09226,-1.14583c1.45503,0 2.40079,0.38194 2.8373,1.14583c0.43651,0.76389 0.29101,1.76422 -0.43651,3.00099l-17.13294,32.08333l17.35119,35.90278c0.58201,1.23677 0.65476,2.25529 0.21825,3.05556c-0.43651,0.80026 -1.38228,1.2004 -2.8373,1.2004c-1.45503,0 -2.81911,-0.40013 -4.09226,-1.2004c-1.27315,-0.80026 -2.20073,-1.81878 -2.78274,-3.05556l-12.87698,-26.51786l-4.14683,7.85714v18.11508c0,1.45503 -0.43651,2.61905 -1.30952,3.49206c-0.87302,0.87302 -2.03704,1.30952 -3.49206,1.30952z" data-paper-data='{"glyphName":"K","glyphIndex":5,"word":1}' style="animation-play-state: running"></path>
        <path d="M426.63194,273.75562v3.05556c0,2.10979 -1.01852,3.16468 -3.05556,3.16468h-3.27381c-2.10979,0 -3.16468,-1.05489 -3.16468,-3.16468v-3.05556c0,-1.96429 -0.70933,-3.65575 -2.12798,-5.0744c-1.41865,-1.41865 -3.11012,-2.12798 -5.0744,-2.12798c-1.96429,0 -3.63757,0.70933 -5.01984,2.12798c-1.38228,1.41865 -2.07341,3.11012 -2.07341,5.0744v42.99603c0,1.96429 0.69114,3.63757 2.07341,5.01984c1.38228,1.38228 3.05556,2.07341 5.01984,2.07341c1.96429,0 3.65575,-0.69114 5.0744,-2.07341c1.41865,-1.38228 2.12798,-3.05556 2.12798,-5.01984v-13.85913h-2.40079c-1.60053,0 -2.40079,-0.80026 -2.40079,-2.40079v-2.40079c0,-1.45503 0.43651,-2.61905 1.30952,-3.49206c0.87302,-0.87302 2.03704,-1.30952 3.49206,-1.30952h2.40079c2.10979,0 3.81944,0.65476 5.12897,1.96429c1.30952,1.30952 1.96429,3.01918 1.96429,5.12897v16.36905c0,2.32804 -0.43651,4.51058 -1.30952,6.54762c-0.87302,2.03704 -2.07341,3.80126 -3.60119,5.29266c-1.52778,1.4914 -3.292,2.67361 -5.29266,3.54663c-2.00066,0.87302 -4.16501,1.30952 -6.49306,1.30952c-2.25529,0 -4.40146,-0.43651 -6.43849,-1.30952c-2.03704,-0.87302 -3.81944,-2.07341 -5.34722,-3.60119c-1.52778,-1.52778 -2.72817,-3.31019 -3.60119,-5.34722c-0.87302,-2.03704 -1.30952,-4.1832 -1.30952,-6.43849v-42.99603c0,-2.32804 0.43651,-4.49239 1.30952,-6.49306c0.87302,-2.00066 2.07341,-3.76488 3.60119,-5.29266c1.52778,-1.52778 3.31019,-2.72817 5.34722,-3.60119c2.03704,-0.87302 4.1832,-1.30952 6.43849,-1.30952c2.32804,0 4.51058,0.43651 6.54762,1.30952c2.03704,0.87302 3.80126,2.07341 5.29266,3.60119c1.4914,1.52778 2.67361,3.292 3.54663,5.29266c0.87302,2.00066 1.30952,4.16501 1.30952,6.49306z" data-paper-data='{"glyphName":"G","glyphIndex":6,"lastGlyphOfWord":true,"word":1}' style="animation-play-state: running"></path>
      </g>

    </g>
  </g>
</svg>